HIERARCHY
ROOT Hips
{
	OFFSET 0.000000 0.000000 0.000000
	CHANNELS 6 Xposition Yposition Zposition Xrotation Yrotation Zrotation
	JOINT LeftUpLeg_virtual
	{
		OFFSET 0.000000 0.000000 0.000000
		CHANNELS 3 Xrotation Yrotation Zrotation
		JOINT LeftUpLeg
		{
			OFFSET 15.427100 -6.655098 0.678600
			CHANNELS 3 Xrotation Yrotation Zrotation
			JOINT LeftLeg
			{
				OFFSET 4.081073 -39.591068 13.024000
				CHANNELS 3 Xrotation Yrotation Zrotation
				JOINT LeftFoot
				{
					OFFSET -4.081074 -37.707932 -15.979700
					CHANNELS 3 Xrotation Yrotation Zrotation
					JOINT LeftToeBase
					{
						OFFSET 5.346399 -15.068900 20.645000
						CHANNELS 3 Xrotation Yrotation Zrotation
						JOINT LeftToe_End
						{
							OFFSET 2.754700 0.931300 11.300900
							CHANNELS 3 Xrotation Yrotation Zrotation
							End Site
							{
								OFFSET 0 0 0
							}
						}
					}
				}
			}
		}
	}
	JOINT RightUpLeg_virtual
	{
		OFFSET 0.000000 0.000000 0.000000
		CHANNELS 3 Xrotation Yrotation Zrotation
		JOINT RightUpLeg
		{
			OFFSET -15.569500 -6.655098 0.678600
			CHANNELS 3 Xrotation Yrotation Zrotation
			JOINT RightLeg
			{
				OFFSET -4.081825 -39.591045 13.023800
				CHANNELS 3 Xrotation Yrotation Zrotation
				JOINT RightFoot
				{
					OFFSET 4.081824 -37.707954 -15.979600
					CHANNELS 3 Xrotation Yrotation Zrotation
					JOINT RightToeBase
					{
						OFFSET -5.346400 -15.068900 20.645000
						CHANNELS 3 Xrotation Yrotation Zrotation
						JOINT RightToe_End
						{
							OFFSET -2.754700 0.931300 11.300900
							CHANNELS 3 Xrotation Yrotation Zrotation
							End Site
							{
								OFFSET 0 0 0
							}
						}
					}
				}
			}
		}
	}
	JOINT Spine_virtual
	{
		OFFSET 0.000000 0.000000 0.000000
		CHANNELS 3 Xrotation Yrotation Zrotation
		JOINT Spine
		{
			OFFSET -0.279200 12.230698 -2.892100
			CHANNELS 3 Xrotation Yrotation Zrotation
			JOINT Spine1
			{
				OFFSET -0.232667 10.192268 -1.242267
				CHANNELS 3 Xrotation Yrotation Zrotation
				JOINT Spine1_split
				{
					OFFSET -0.232667 10.192268 -1.242267
					CHANNELS 3 Xrotation Yrotation Zrotation
					JOINT Spine2
					{
						OFFSET -0.232667 10.192268 -1.242267
						CHANNELS 3 Xrotation Yrotation Zrotation
						JOINT Neck_virtual
						{
							OFFSET 0.000000 0.000000 0.000000
							CHANNELS 3 Xrotation Yrotation Zrotation
							JOINT Neck
							{
								OFFSET -0.418800 17.814194 8.416900
								CHANNELS 3 Xrotation Yrotation Zrotation
								JOINT Head
								{
									OFFSET 0.000000 7.031097 3.806800
									CHANNELS 3 Xrotation Yrotation Zrotation
									JOINT HeadTop_End
									{
										OFFSET 0.000000 24.646606 12.978600
										CHANNELS 3 Xrotation Yrotation Zrotation
										End Site
										{
											OFFSET 0 0 0
										}
									}
								}
							}
						}
						JOINT LeftShoulder_virtual
						{
							OFFSET 0.000000 0.000000 0.000000
							CHANNELS 3 Xrotation Yrotation Zrotation
							JOINT LeftShoulder
							{
								OFFSET 8.476499 7.247704 -3.868750
								CHANNELS 3 Xrotation Yrotation Zrotation
								JOINT LeftShoulder_split
								{
									OFFSET 8.476499 7.247704 -3.868750
									CHANNELS 3 Xrotation Yrotation Zrotation
									JOINT LeftArm
									{
										OFFSET 9.308998 -2.777710 0.208600
										CHANNELS 3 Xrotation Yrotation Zrotation
										JOINT LeftForeArm
										{
											OFFSET 29.972298 0.000000 0.000000
											CHANNELS 3 Xrotation Yrotation Zrotation
											JOINT LeftHand
											{
												OFFSET 26.026505 0.000000 0.000000
												CHANNELS 3 Xrotation Yrotation Zrotation
												End Site
												{
													OFFSET 0 0 0
												}
											}
										}
									}
								}
							}
						}
						JOINT RightShoulder_virtual
						{
							OFFSET 0.000000 0.000000 0.000000
							CHANNELS 3 Xrotation Yrotation Zrotation
							JOINT RightShoulder
							{
								OFFSET -7.570500 7.247704 -3.868750
								CHANNELS 3 Xrotation Yrotation Zrotation
								JOINT RightShoulder_split
								{
									OFFSET -7.570500 7.247704 -3.868750
									CHANNELS 3 Xrotation Yrotation Zrotation
									JOINT RightArm
									{
										OFFSET -9.308998 -2.777710 0.208500
										CHANNELS 3 Xrotation Yrotation Zrotation
										JOINT RightForeArm
										{
											OFFSET -29.972300 0.000000 0.000000
											CHANNELS 3 Xrotation Yrotation Zrotation
											JOINT RightHand
											{
												OFFSET -26.026505 0.000000 0.000000
												CHANNELS 3 Xrotation Yrotation Zrotation
												End Site
												{
													OFFSET 0 0 0
												}
											}
										}
									}
								}
							}
						}
					}
				}
			}
		}
	}
}
MOTION
Frames: 8
Frame Time: 0.03333333
0.288788 78.878159 -0.156860 0.000000 0.000000 0.000000 3.037455 -58.355039 6.232828 -34.680292 8.733541 27.676954 40.313935 -8.737387 -10.519000 -7.470823 -1.705577 -10.811961 -0.367899 1.237874 0.745982 0.000000 0.000000 0.000000 3.037455 -58.355039 6.232828 -31.022494 -7.193572 -29.202153 46.885663 5.280631 -6.185185 -19.296635 0.939573 23.038841 -0.365226 -0.996769 -0.740847 0.000000 0.000000 0.000000 3.037455 -58.355039 6.232828 11.190422 0.276978 -2.458368 8.434585 0.027684 -5.592323 0.000000 0.000000 0.000000 0.000000 0.000000 0.000000 8.457036 0.027894 -5.591864 -21.556292 25.063284 12.062617 -0.293597 25.465688 -3.208706 0.000000 0.000000 0.000000 8.457036 0.027894 -5.591864 -6.221639 -11.503827 -4.023761 0.000000 0.000000 0.000000 -23.061628 9.569256 -36.639826 0.046362 -43.170945 -0.010989 0.000000 0.000000 0.000000 8.457036 0.027894 -5.591864 -5.488235 10.658257 2.466468 0.000000 0.000000 0.000000 -41.473879 -26.755577 30.079030 -155.044229 68.137107 156.691165 0.000000 0.000000 0.000000 
-0.648203 79.300690 0.009781 0.000000 0.000000 0.000000 6.545424 -60.164343 10.481171 -33.345318 9.383299 26.798234 39.299556 -7.013728 -10.105465 -8.513097 -0.847394 -12.350768 -0.426067 1.237197 0.708075 0.000000 0.000000 0.000000 6.545424 -60.164343 10.481171 -32.650227 -5.382141 -29.266036 46.823768 5.381176 -6.168247 -19.418148 1.378864 22.808027 -1.699995 -0.657371 -0.366454 0.000000 0.000000 0.000000 6.545424 -60.164343 10.481171 9.970249 0.177883 -3.056330 5.412855 1.778463 -6.941526 0.000000 0.000000 0.000000 0.000000 0.000000 0.000000 6.233832 0.975658 -6.719544 -17.015547 23.940351 3.257991 -3.784288 21.629766 8.240863 0.000000 0.000000 0.000000 6.233832 0.975658 -6.719544 -6.702462 -14.957874 -4.571851 0.000000 0.000000 0.000000 -18.021917 7.338825 -35.052558 -0.477867 -38.363311 -0.338812 0.000000 0.000000 0.000000 6.233832 0.975658 -6.719544 -5.596366 8.117636 2.079309 0.000000 0.000000 0.000000 -42.075335 -29.071129 25.529878 -158.484212 63.364307 160.638468 0.000000 0.000000 0.000000 
-3.002499 80.084389 0.228065 0.000000 0.000000 0.000000 7.754911 -60.956310 12.389149 -30.459283 10.331465 26.644129 36.618669 -6.080200 -8.905289 -8.719950 -0.370731 -15.196549 -0.348177 1.238209 0.790621 0.000000 0.000000 0.000000 7.754911 -60.956310 12.389149 -33.181199 -3.131914 -27.979136 49.269843 5.553751 -5.680796 -18.084992 2.551511 20.629941 -5.125256 -0.012103 -0.987540 0.000000 0.000000 0.000000 7.754911 -60.956310 12.389149 8.970280 -0.013787 -3.859439 0.891126 1.532506 -9.429975 0.000000 0.000000 0.000000 0.000000 0.000000 0.000000 1.674380 0.804737 -9.252079 -11.960168 23.337925 -5.988324 -2.747558 19.559534 10.071111 0.000000 0.000000 0.000000 1.674380 0.804737 -9.252079 -6.911203 -16.614273 -3.923255 0.000000 0.000000 0.000000 -17.257274 10.437859 -33.348440 0.390005 -39.556976 0.205987 0.000000 0.000000 0.000000 1.674380 0.804737 -9.252079 -5.775047 5.551408 1.625787 0.000000 0.000000 0.000000 -38.882471 -33.575724 26.148165 -161.829721 57.144706 164.636177 0.000000 0.000000 0.000000 
-7.525032 79.961411 -0.448612 0.000000 0.000000 0.000000 7.431084 -58.300692 12.861251 -28.638720 11.105631 27.498248 33.394216 -7.491722 -7.963205 -8.338036 -1.444720 -18.116083 -0.336299 1.238427 0.817522 0.000000 0.000000 0.000000 7.431084 -58.300692 12.861251 -36.751236 0.858242 -26.643511 58.542801 6.429917 -6.588418 -10.774419 6.450106 18.962559 -21.444140 2.850470 -3.390393 0.000000 0.000000 0.000000 7.431084 -58.300692 12.861251 8.371156 -0.324285 -4.887903 -1.833102 1.182718 -11.772231 0.000000 0.000000 0.000000 0.000000 0.000000 0.000000 -1.526813 0.087505 -11.605879 -9.909279 22.692740 -8.192029 -1.800624 18.934471 8.662644 0.000000 0.000000 0.000000 -1.526813 0.087505 -11.605879 -6.653876 -14.959639 -0.689961 0.000000 0.000000 0.000000 -19.522829 9.032877 -32.675253 2.656754 -46.552995 1.886271 0.000000 0.000000 0.000000 -1.526813 0.087505 -11.605879 -6.030924 4.173773 0.513732 0.000000 0.000000 0.000000 -40.404855 -38.913910 24.896062 -163.945823 52.732216 167.151859 0.000000 0.000000 0.000000 
-13.275322 79.407471 -1.332733 0.000000 0.000000 0.000000 6.238829 -53.364903 11.857930 -27.889078 11.613505 28.717206 30.917456 -11.304112 -7.790463 -8.793765 -3.012591 -19.314947 -0.454420 1.236833 0.697107 0.000000 0.000000 0.000000 6.238829 -53.364903 11.857930 -40.093019 6.679892 -27.821263 65.622251 13.218936 -6.204046 5.001578 7.682787 27.072471 -33.727194 6.052595 -8.098306 0.000000 0.000000 0.000000 6.238829 -53.364903 11.857930 7.980288 -0.628848 -5.377388 -2.751772 -0.097363 -13.141399 0.000000 0.000000 0.000000 0.000000 0.000000 0.000000 -2.781010 -1.300076 -12.982324 -8.353290 22.469724 -7.794719 0.497114 19.763904 5.968750 0.000000 0.000000 0.000000 -2.781010 -1.300076 -12.982324 -6.680643 -11.924393 2.218042 0.000000 0.000000 0.000000 -20.517154 8.633659 -31.762036 -1.226235 -58.081306 -1.084682 0.000000 0.000000 0.000000 -2.781010 -1.300076 -12.982324 -6.323343 3.423923 -0.902426 0.000000 0.000000 0.000000 -45.877998 -42.504564 20.709757 -165.508543 49.265372 168.972186 0.000000 0.000000 0.000000 
-19.410053 78.632393 -1.720333 0.000000 0.000000 0.000000 7.485279 -50.899116 13.461553 -25.861191 12.305512 29.737735 27.985993 -13.693800 -7.246539 -10.278338 -2.599705 -22.069781 -0.471335 1.236518 0.697099 0.000000 0.000000 0.000000 7.485279 -50.899116 13.461553 -43.684285 11.500462 -29.443924 67.190074 16.660828 -5.991896 12.751564 7.994227 32.328173 -36.496880 4.036740 -9.630335 0.000000 0.000000 0.000000 7.485279 -50.899116 13.461553 8.045540 -0.850518 -5.112831 -2.628027 -1.143586 -13.585928 0.000000 0.000000 0.000000 0.000000 0.000000 0.000000 -2.658048 -2.261044 -13.417763 -8.304544 21.270579 -8.890612 -1.623354 18.228943 4.280486 0.000000 0.000000 0.000000 -2.658048 -2.261044 -13.417763 -7.010443 -7.758841 6.082061 0.000000 0.000000 0.000000 -22.464741 11.561114 -32.135658 0.090266 -67.442777 0.038948 0.000000 0.000000 0.000000 -2.658048 -2.261044 -13.417763 -6.606305 4.275092 -2.772681 0.000000 0.000000 0.000000 -55.680652 -40.663128 12.455867 -166.525763 47.451575 170.044676 0.000000 0.000000 0.000000 
-25.355299 77.868362 -1.547523 0.000000 0.000000 0.000000 9.668706 -50.120649 15.835054 -22.462395 13.356811 31.095669 23.773003 -14.284946 -6.822557 -11.617931 -1.612217 -25.674381 -0.506937 1.236052 0.690988 0.000000 0.000000 0.000000 9.668706 -50.120649 15.835054 -46.584089 15.103094 -31.258296 65.575287 14.716025 -5.661084 9.941608 5.094075 29.330516 -23.801071 -1.925331 -2.603810 0.000000 0.000000 0.000000 9.668706 -50.120649 15.835054 8.377545 -0.817570 -4.295541 -1.498917 -1.032896 -13.211296 0.000000 0.000000 0.000000 0.000000 0.000000 0.000000 -1.522825 -2.123923 -13.047849 -9.542037 19.515869 -10.490810 -6.267677 15.829877 2.921214 0.000000 0.000000 0.000000 -1.522825 -2.123923 -13.047849 -7.670081 -4.354207 8.067979 0.000000 0.000000 0.000000 -25.395466 15.500730 -31.190602 5.406739 -74.857350 5.175217 0.000000 0.000000 0.000000 -1.522825 -2.123923 -13.047849 -6.513309 6.122026 -7.570717 0.000000 0.000000 0.000000 -65.059341 -38.447808 3.754515 -165.486700 46.592166 169.406218 0.000000 0.000000 0.000000 
-30.851122 77.423904 -1.235882 0.000000 0.000000 0.000000 10.745212 -49.047998 16.685170 -18.916943 14.429000 32.025712 18.655629 -16.685052 -6.233013 -11.984812 0.821539 -28.142509 -0.343597 1.455800 0.321233 0.000000 0.000000 0.000000 10.745212 -49.047998 16.685170 -46.617708 16.062706 -33.109998 59.689740 12.239853 -5.483406 6.953478 0.885992 26.279675 -10.676577 -1.842908 4.444048 0.000000 0.000000 0.000000 10.745212 -49.047998 16.685170 8.690450 -0.502760 -3.087766 -0.283282 -0.552274 -12.162560 0.000000 0.000000 0.000000 0.000000 0.000000 0.000000 -0.275813 -1.567556 -12.012163 -10.967330 18.433639 -10.331119 -11.270286 14.541237 1.557269 0.000000 0.000000 0.000000 -0.275813 -1.567556 -12.012163 -7.943226 -2.707468 8.496827 0.000000 0.000000 0.000000 -27.591020 20.767998 -29.379225 17.150258 -78.061959 16.755275 0.000000 0.000000 0.000000 -0.275813 -1.567556 -12.012163 -5.807515 7.999092 -14.870213 0.000000 0.000000 0.000000 -71.133825 -39.505056 -2.229423 -167.886992 44.984797 171.428746 0.000000 0.000000 0.000000 
